<?xml version="1.0" encoding="iso-8859-1"?>
<!-- Generator: Adobe Illustrator 19.0.0, SVG Export Plug-In . SVG Version: 6.00 Build 0)  -->
<svg version="1.1" id="Layer_1" xmlns="http://www.w3.org/2000/svg" xmlns:xlink="http://www.w3.org/1999/xlink" x="0px" y="0px"
	 viewBox="0 0 512 512" style="enable-background:new 0 0 512 512;" xml:space="preserve">
<g>
	<g>
		<path d="M9.002,0c-4.661,0-8.44,3.778-8.44,8.44v93.546c0,4.661,3.779,8.44,8.44,8.44s8.44-3.778,8.44-8.44V8.44
			C17.442,3.778,13.663,0,9.002,0z"/>
	</g>
</g>
<g>
	<g>
		<path d="M502.998,495.121h-13.189c-10.833-7.615-61.041-44.109-81.776-80.309c-19.601-34.221-29.277-81.504-38.636-127.229
			c-17.268-84.381-35.111-171.601-117.832-173.634c-0.259-0.024-0.523-0.036-0.789-0.036h-2.189c-0.169,0-0.335,0.005-0.502,0.015
			c-0.167-0.01-0.333-0.015-0.502-0.015h-2.189c-0.267,0-0.529,0.012-0.79,0.036c-82.708,2.042-100.564,89.258-117.832,173.635
			c-9.358,45.726-19.034,93.007-38.635,127.228c-16.45,28.718-51.531,57.676-70.695,72.193V135.739c0-4.662-3.779-8.44-8.44-8.44
			s-8.44,3.778-8.44,8.44V503.56c0,0.357,0.029,0.706,0.072,1.051c0.008,0.068,0.02,0.133,0.03,0.2
			c0.126,0.85,0.378,1.655,0.737,2.402c0.026,0.054,0.051,0.108,0.078,0.161c0.182,0.359,0.387,0.703,0.617,1.03
			c0.036,0.051,0.074,0.098,0.111,0.149c0.227,0.308,0.47,0.603,0.737,0.878c0.019,0.02,0.037,0.043,0.057,0.062
			c0.278,0.281,0.579,0.537,0.895,0.776c0.058,0.044,0.116,0.088,0.174,0.131c0.32,0.231,0.654,0.443,1.005,0.628
			c0.034,0.018,0.07,0.033,0.105,0.051c0.341,0.173,0.695,0.323,1.061,0.45c0.045,0.016,0.088,0.034,0.133,0.048
			c0.376,0.124,0.764,0.217,1.161,0.287c0.078,0.013,0.155,0.024,0.233,0.035C8.172,511.959,8.581,512,9.002,512h478.166h15.829
			c4.662,0,8.44-3.778,8.44-8.44C511.437,498.898,507.66,495.121,502.998,495.121z M256.856,495.121
			c-0.782-3.853-4.186-6.752-8.27-6.752c-4.083,0-7.488,2.899-8.27,6.752H34.631c20.857-16.382,51.994-43.714,68.151-71.92
			c20.948-36.571,30.9-85.204,40.526-132.234c8.741-42.712,16.997-83.057,32.62-113.122c15.407-29.654,36.018-44.663,64.458-46.781
			c0.886,3.715,4.216,6.479,8.201,6.479c3.958,0,7.269-2.728,8.182-6.404c27.932,2.389,48.243,17.395,63.473,46.706
			c15.621,30.066,23.878,70.41,32.618,113.122c9.626,47.031,19.578,95.663,40.527,132.234c16.156,28.206,47.294,55.538,68.152,71.92
			H256.856z"/>
	</g>
</g>
<g>
	<g>
		<path d="M248.588,361.462c-4.661,0-8.44,3.778-8.44,8.44v13.016c0,4.662,3.779,8.44,8.44,8.44s8.438-3.778,8.438-8.44v-13.016
			C257.026,365.239,253.249,361.462,248.588,361.462z"/>
	</g>
</g>
<g>
	<g>
		<path d="M248.588,403.764c-4.661,0-8.44,3.778-8.44,8.44v13.016c0,4.662,3.779,8.44,8.44,8.44s8.438-3.778,8.438-8.44v-13.016
			C257.026,407.542,253.249,403.764,248.588,403.764z"/>
	</g>
</g>
<g>
	<g>
		<path d="M248.588,319.159c-4.661,0-8.44,3.779-8.44,8.44v13.015c0,4.662,3.779,8.44,8.44,8.44s8.438-3.778,8.438-8.44v-13.015
			C257.026,322.937,253.249,319.159,248.588,319.159z"/>
	</g>
</g>
<g>
	<g>
		<path d="M248.588,446.066c-4.661,0-8.44,3.778-8.44,8.44v13.016c0,4.662,3.779,8.44,8.44,8.44s8.438-3.778,8.438-8.44v-13.016
			C257.026,449.844,253.249,446.066,248.588,446.066z"/>
	</g>
</g>
<g>
	<g>
		<path d="M248.588,149.95c-4.661,0-8.44,3.778-8.44,8.44v13.016c0,4.662,3.779,8.44,8.44,8.44s8.438-3.778,8.438-8.44v-13.016
			C257.026,153.727,253.249,149.95,248.588,149.95z"/>
	</g>
</g>
<g>
	<g>
		<path d="M248.588,192.252c-4.661,0-8.44,3.778-8.44,8.44v13.016c0,4.662,3.779,8.44,8.44,8.44s8.438-3.778,8.438-8.44v-13.016
			C257.026,196.03,253.249,192.252,248.588,192.252z"/>
	</g>
</g>
<g>
	<g>
		<path d="M248.588,276.857c-4.661,0-8.44,3.778-8.44,8.44v13.015c0,4.662,3.779,8.44,8.44,8.44s8.438-3.778,8.438-8.44v-13.015
			C257.026,280.636,253.249,276.857,248.588,276.857z"/>
	</g>
</g>
<g>
	<g>
		<path d="M248.588,234.553c-4.661,0-8.44,3.778-8.44,8.44v13.016c0,4.662,3.779,8.44,8.44,8.44s8.438-3.778,8.438-8.44v-13.016
			C257.026,238.332,253.249,234.553,248.588,234.553z"/>
	</g>
</g>
<g>
</g>
<g>
</g>
<g>
</g>
<g>
</g>
<g>
</g>
<g>
</g>
<g>
</g>
<g>
</g>
<g>
</g>
<g>
</g>
<g>
</g>
<g>
</g>
<g>
</g>
<g>
</g>
<g>
</g>
</svg>
